<svg xmlns="http://www.w3.org/2000/svg" width="1280" height="340" viewBox="0 0 1280 340" role="img" aria-label="降 SpringAI 阿里 十八掌实战">
  <defs>
    <linearGradient id="bg" x1="0" y1="0" x2="1" y2="1">
      <stop offset="0%" stop-color="#0B1220"/>
      <stop offset="55%" stop-color="#132B4A"/>
      <stop offset="100%" stop-color="#0B1220"/>
    </linearGradient>
    <linearGradient id="accent" x1="0" y1="0" x2="1" y2="0">
      <stop offset="0%" stop-color="#4C8DFF"/>
      <stop offset="100%" stop-color="#38D9C0"/>
    </linearGradient>
  </defs>

  <rect width="1280" height="340" fill="url(#bg)"/>
  <circle cx="1140" cy="60" r="150" fill="#4C8DFF" opacity="0.10"/>
  <circle cx="120" cy="300" r="130" fill="#38D9C0" opacity="0.10"/>

  <text x="72" y="132" font-family="Segoe UI, PingFang SC, Microsoft YaHei, sans-serif"
        font-size="56" font-weight="700" fill="#FFFFFF">「降 SpringAI 阿里」十八掌实战</text>

  <text x="72" y="184" font-family="Segoe UI, PingFang SC, Microsoft YaHei, sans-serif"
        font-size="24" fill="#BBD2F0">18 章系列文章的配套代码仓：每一掌都是一个能跑、能验收、能回滚的闭环</text>

  <rect x="72" y="222" width="470" height="4" rx="2" fill="url(#accent)"/>

  <text x="72" y="278" font-family="Segoe UI, PingFang SC, Microsoft YaHei, sans-serif"
        font-size="20" fill="#8FA9C9">JDK 21 · Spring Boot 3.5.10 · Spring AI 1.1.2 · Spring AI Alibaba 1.1.2.2</text>

  <g fill="none" stroke="#4C8DFF" stroke-width="2" opacity="0.85">
    <circle cx="1090" cy="228" r="7"/><circle cx="1120" cy="228" r="7"/><circle cx="1150" cy="228" r="7"/>
    <circle cx="1180" cy="228" r="7"/><circle cx="1210" cy="228" r="7"/>
    <circle cx="1090" cy="258" r="7"/><circle cx="1120" cy="258" r="7"/><circle cx="1150" cy="258" r="7"/>
    <circle cx="1180" cy="258" r="7"/><circle cx="1210" cy="258" r="7"/>
    <circle cx="1090" cy="288" r="7"/><circle cx="1120" cy="288" r="7"/><circle cx="1150" cy="288" r="7"/>
    <circle cx="1180" cy="288" r="7"/><circle cx="1210" cy="288" r="7"/>
    <circle cx="1105" cy="318" r="7"/><circle cx="1135" cy="318" r="7"/><circle cx="1165" cy="318" r="7"/>
  </g>
  <text x="1035" y="200" font-family="Segoe UI, PingFang SC, Microsoft YaHei, sans-serif"
        font-size="20" fill="#9FB8D8">18 掌</text>
</svg>
